<?xml version="1.0" encoding="iso-8859-1"?>
<svg xmlns="http://www.w3.org/2000/svg" height="800" width="600" version="1.1" xmlns:xlink="http://www.w3.org/1999/xlink">
<g font-family="Droid Sans">
<text style="text-anchor:start;" font-size="30px" x="20" y="40">wed, 23 dec 15:00</text>
<text style="text-anchor:end;" font-size="30px" x="445" y="40">06:49</text>
<text style="text-anchor:end;" font-size="30px" x="580" y="40">16:33</text>
<text style="text-anchor:end;" font-size="100px" x="425" y="150">13</text>
<text style="text-anchor:start;" font-size="50px" x="420" y="145">.2</text>
<circle cx="440" cy="80" r="7" stroke="black" stroke-width="3" fill="none"/>
<text style="text-anchor:start;" font-size="35px" x="450" y="100">C</text>
<text style="text-anchor:end;" font-size="30px" x="400" y="200">28%</text>
<text style="text-anchor:end;" font-size="30px" x="550" y="200">1021hPa</text>
<text style="text-anchor:end;" font-size="30px" x="550" y="240"> 3 m/s</text>
<text style="text-anchor:end;" font-size="30px" x="550" y="280">clear sky</text>
<text style="text-anchor:end;" font-size="35px" x="550" y="110">14</text>
<circle cx="555" cy="90" r="4" stroke="black" stroke-width="3" fill="none"/>
<text style="text-anchor:start;" font-size="25px" x="560" y="102">C</text>
<line x1="490" x2="590" y1="117" y2="117" style="fill:none;stroke:black;stroke-width:1px;"/>
<text style="text-anchor:end;" font-size="35px" x="550" y="150">4</text>
<circle cx="555" cy="130" r="4" stroke="black" stroke-width="3" fill="none"/>
<text style="text-anchor:start;" font-size="25px" x="560" y="142">C</text>
<text style="text-anchor:end;" font-size="30px" x="50" y="345">3h</text>
<text style="text-anchor:end;" font-size="35px" x="105" y="490">10</text>
<circle cx="110" cy="465" r="4" stroke="black" stroke-width="2" fill="none"/>
<text style="text-anchor:start;" font-size="25px" x="115" y="480">C</text>
<text style="text-anchor:end;" font-size="30px" x="250" y="345">6h</text>
<text style="text-anchor:end;" font-size="35px" x="305" y="490">8</text>
<circle cx="310" cy="465" r="4" stroke="black" stroke-width="2" fill="none"/>
<text style="text-anchor:start;" font-size="25px" x="315" y="480">C</text>
<text style="text-anchor:end;" font-size="25px" x="301" y="403">0.0</text>
<text style="text-anchor:end;" font-size="30px" x="450" y="345">9h</text>
<text style="text-anchor:end;" font-size="35px" x="505" y="490">7</text>
<circle cx="510" cy="465" r="4" stroke="black" stroke-width="2" fill="none"/>
<text style="text-anchor:start;" font-size="25px" x="515" y="480">C</text>
<text style="text-anchor:end;" font-size="25px" x="501" y="403">0.0</text>
<line x1="0" x2="600" y1="505" y2="505" style="fill:none;stroke:black;stroke-width:2px;"/>
<line x1="0" x2="600" y1="310" y2="310" style="fill:none;stroke:black;stroke-width:2px;"/>
<line x1="200" x2="200" y1="310" y2="505" style="fill:none;stroke:black;stroke-width:2px;"/>
<line x1="400" x2="400" y1="310" y2="505" style="fill:none;stroke:black;stroke-width:2px;"/>
<text style="text-anchor:end;" font-size="35px" x="185" y="575">thursday</text>
<text style="text-anchor:end;" font-size="35px" x="368" y="575">5</text>
<circle cx="373" cy="550" r="4" stroke="black" stroke-width="2" fill="none"/>
<text style="text-anchor:start;" font-size="25px" x="378" y="565">C</text>
<text style="text-anchor:end;" font-size="35px" x="523" y="575">11</text>
<circle cx="528" cy="550" r="4" stroke="black" stroke-width="2" fill="none"/>
<text style="text-anchor:start;" font-size="25px" x="533" y="565">C</text>
<line x1="408" x2="468" y1="565" y2="565" style="fill:none;stroke:black;stroke-linecap:round;stroke-width:10px;"/>
<text style="text-anchor:end;" font-size="35px" x="185" y="665">friday</text>
<text style="text-anchor:end;" font-size="35px" x="381" y="665">6</text>
<circle cx="386" cy="640" r="4" stroke="black" stroke-width="2" fill="none"/>
<text style="text-anchor:start;" font-size="25px" x="391" y="655">C</text>
<text style="text-anchor:end;" font-size="35px" x="550" y="665">13</text>
<circle cx="555" cy="640" r="4" stroke="black" stroke-width="2" fill="none"/>
<text style="text-anchor:start;" font-size="25px" x="560" y="655">C</text>
<line x1="421" x2="495" y1="655" y2="655" style="fill:none;stroke:black;stroke-linecap:round;stroke-width:10px;"/>
<text style="text-anchor:end;" font-size="35px" x="185" y="755">saturday</text>
<text style="text-anchor:end;" font-size="35px" x="355" y="755">4</text>
<circle cx="360" cy="730" r="4" stroke="black" stroke-width="2" fill="none"/>
<text style="text-anchor:start;" font-size="25px" x="365" y="745">C</text>
<text style="text-anchor:end;" font-size="35px" x="510" y="755">10</text>
<circle cx="515" cy="730" r="4" stroke="black" stroke-width="2" fill="none"/>
<text style="text-anchor:start;" font-size="25px" x="520" y="745">C</text>
<line x1="395" x2="455" y1="745" y2="745" style="fill:none;stroke:black;stroke-linecap:round;stroke-width:10px;"/>
</g>
<g transform="matrix(1.1,0,0,1.1,332,14)"><path d="M2.75,15.36c0-0.25,0.1-0.48,0.3-0.69c0.22-0.19,0.46-0.29,0.7-0.29h2.33c0.27,0,0.49,0.1,0.67,0.29
	c0.18,0.19,0.27,0.43,0.27,0.69c0,0.29-0.09,0.53-0.27,0.72c-0.18,0.19-0.41,0.29-0.67,0.29H3.75c-0.27,0-0.5-0.1-0.7-0.3
	C2.85,15.86,2.75,15.62,2.75,15.36z M6.08,7.38c0-0.27,0.09-0.5,0.26-0.68C6.57,6.5,6.8,6.4,7.05,6.4c0.26,0,0.49,0.1,0.68,0.29
	l1.64,1.65c0.19,0.22,0.28,0.45,0.28,0.69c0,0.28-0.09,0.52-0.27,0.7s-0.4,0.28-0.66,0.28c-0.24,0-0.48-0.1-0.7-0.29L6.34,8.11
	C6.17,7.9,6.08,7.65,6.08,7.38z M8.08,20.88c0-0.28,0.1-0.51,0.29-0.68c0.18-0.17,0.4-0.26,0.68-0.26h2.63l3.11-2.92
	c0.1-0.08,0.21-0.08,0.34,0l3.16,2.92h2.77c0.27,0,0.5,0.09,0.69,0.28c0.19,0.18,0.29,0.41,0.29,0.67c0,0.27-0.1,0.5-0.29,0.69
	c-0.19,0.19-0.42,0.29-0.69,0.29h-3.38c-0.1,0-0.2-0.02-0.29-0.07l-2.41-2.27l-2.39,2.27c-0.08,0.05-0.17,0.07-0.28,0.07H9.05
	c-0.27,0-0.5-0.1-0.69-0.29C8.17,21.38,8.08,21.15,8.08,20.88z M9,15.36c0,0.97,0.21,1.85,0.62,2.64c0.02,0.12,0.11,0.18,0.25,0.18
	h1.88c0.07,0,0.12-0.03,0.15-0.08c0.03-0.06,0.02-0.12-0.02-0.19c-0.64-0.77-0.96-1.62-0.96-2.55c0-1.12,0.4-2.08,1.2-2.87
	c0.8-0.79,1.76-1.18,2.89-1.18c1.12,0,2.07,0.39,2.86,1.18c0.79,0.79,1.19,1.74,1.19,2.87c0,0.94-0.32,1.79-0.95,2.55
	c-0.04,0.07-0.05,0.13-0.03,0.19s0.07,0.08,0.15,0.08h1.9c0.13,0,0.21-0.06,0.23-0.18C20.8,17.23,21,16.35,21,15.36
	c0-0.81-0.16-1.59-0.48-2.32c-0.32-0.74-0.75-1.37-1.28-1.91c-0.53-0.53-1.17-0.96-1.91-1.28c-0.74-0.32-1.51-0.47-2.32-0.47
	c-0.81,0-1.59,0.16-2.33,0.47c-0.74,0.32-1.38,0.74-1.92,1.28c-0.54,0.53-0.97,1.17-1.29,1.91C9.16,13.77,9,14.54,9,15.36z
	 M14.03,6.4v-2.3c0-0.29,0.09-0.52,0.28-0.71s0.43-0.28,0.71-0.28c0.28,0,0.51,0.09,0.7,0.28S16,3.83,16,4.11v2.3
	c0,0.29-0.09,0.52-0.28,0.71c-0.18,0.18-0.42,0.28-0.7,0.28c-0.29,0-0.52-0.09-0.71-0.28C14.12,6.93,14.03,6.69,14.03,6.4z
	 M20.38,9.04c0-0.25,0.09-0.48,0.27-0.69l1.62-1.65c0.19-0.19,0.43-0.29,0.7-0.29c0.27,0,0.51,0.1,0.69,0.29
	c0.19,0.19,0.28,0.42,0.28,0.69c0,0.29-0.09,0.53-0.26,0.73L22,9.73c-0.21,0.19-0.45,0.29-0.7,0.29c-0.27,0-0.49-0.09-0.66-0.28
	S20.38,9.32,20.38,9.04z M22.99,15.36c0-0.27,0.09-0.5,0.27-0.69c0.18-0.19,0.4-0.29,0.66-0.29h2.35c0.27,0,0.5,0.1,0.69,0.29
	c0.19,0.19,0.29,0.43,0.29,0.69c0,0.28-0.1,0.51-0.29,0.71s-0.42,0.3-0.69,0.3h-2.35c-0.27,0-0.49-0.1-0.67-0.29
	C23.08,15.88,22.99,15.64,22.99,15.36z" /></g>
<g transform="matrix(1.1,0,0,1.1,467,14)"><path d="M2.88,15.47c0-0.28,0.1-0.5,0.3-0.68c0.17-0.18,0.4-0.26,0.68-0.26h2.31c0.27,0,0.49,0.09,0.67,0.27
	c0.17,0.18,0.26,0.4,0.26,0.67c0,0.28-0.09,0.52-0.27,0.71c-0.18,0.19-0.4,0.29-0.66,0.29H3.87c-0.27,0-0.5-0.1-0.69-0.3
	C2.98,15.97,2.88,15.74,2.88,15.47z M6.17,7.61c0-0.28,0.08-0.51,0.25-0.68c0.2-0.2,0.43-0.3,0.7-0.3c0.29,0,0.51,0.1,0.68,0.3
	l1.62,1.63c0.46,0.44,0.46,0.89,0,1.35c-0.19,0.19-0.4,0.28-0.65,0.28c-0.22,0-0.44-0.09-0.68-0.28L6.43,8.29
	C6.26,8.11,6.17,7.88,6.17,7.61z M8.14,20.89c0-0.26,0.1-0.49,0.3-0.69c0.18-0.18,0.41-0.27,0.68-0.27h3.22
	c0.11,0,0.2,0.02,0.28,0.08l2.35,2.22L17.36,20c0.07-0.05,0.17-0.08,0.29-0.08h3.3c0.27,0,0.5,0.09,0.69,0.28
	c0.19,0.19,0.29,0.42,0.29,0.68c0,0.27-0.1,0.5-0.29,0.69c-0.19,0.19-0.42,0.29-0.69,0.29h-2.68l-3.14,2.84
	c-0.12,0.09-0.23,0.09-0.33,0l-3.08-2.84h-2.6c-0.27,0-0.5-0.1-0.69-0.29C8.24,21.39,8.14,21.16,8.14,20.89z M9.08,15.47
	c0,0.99,0.19,1.87,0.58,2.62c0.06,0.11,0.15,0.16,0.27,0.16h1.87c0.08,0,0.13-0.02,0.15-0.07c0.02-0.05-0.01-0.11-0.07-0.18
	c-0.59-0.74-0.89-1.59-0.89-2.53c0-1.1,0.39-2.04,1.18-2.81c0.79-0.77,1.74-1.16,2.85-1.16c1.1,0,2.04,0.39,2.83,1.16
	c0.78,0.78,1.18,1.71,1.18,2.8c0,0.94-0.3,1.79-0.89,2.53c-0.07,0.07-0.09,0.13-0.07,0.18c0.02,0.05,0.07,0.07,0.15,0.07h1.88
	c0.13,0,0.21-0.05,0.24-0.16c0.41-0.78,0.62-1.66,0.62-2.62c0-0.79-0.16-1.56-0.47-2.29s-0.74-1.37-1.27-1.9s-1.16-0.95-1.89-1.27
	c-0.73-0.32-1.5-0.47-2.3-0.47c-0.8,0-1.57,0.16-2.3,0.47c-0.73,0.32-1.36,0.74-1.89,1.27s-0.95,1.16-1.27,1.9
	S9.08,14.68,9.08,15.47z M14.04,6.66V4.33c0-0.27,0.1-0.5,0.29-0.69s0.42-0.29,0.69-0.29c0.27,0,0.5,0.1,0.69,0.29
	s0.29,0.42,0.29,0.69v2.32c0,0.27-0.1,0.5-0.29,0.69c-0.19,0.19-0.42,0.29-0.69,0.29c-0.27,0-0.5-0.1-0.69-0.29
	C14.13,7.15,14.04,6.93,14.04,6.66z M20.31,9.24c0-0.28,0.09-0.51,0.26-0.67l1.63-1.63c0.16-0.2,0.39-0.3,0.68-0.3
	c0.27,0,0.5,0.1,0.68,0.29c0.18,0.19,0.27,0.42,0.27,0.69c0,0.28-0.08,0.51-0.25,0.68l-1.66,1.63c-0.23,0.19-0.46,0.28-0.69,0.28
	c-0.26,0-0.48-0.09-0.66-0.28C20.4,9.74,20.31,9.51,20.31,9.24z M22.9,15.47c0-0.27,0.09-0.49,0.26-0.67
	c0.17-0.18,0.4-0.27,0.67-0.27h2.32c0.27,0,0.5,0.09,0.69,0.27c0.19,0.18,0.29,0.4,0.29,0.67c0,0.27-0.1,0.5-0.29,0.7
	c-0.19,0.2-0.42,0.3-0.69,0.3h-2.32c-0.26,0-0.48-0.1-0.66-0.29C22.99,15.99,22.9,15.75,22.9,15.47z" /></g>
<g transform="matrix(2.3,0,0,2.3,-17,280)"><path d="M 50.0005,62.5 C 43.0965,62.5 37.5,56.9035 37.5,50.0005 37.5,43.0965 43.0965,37.5 50.0005,37.5 c 0.7865,0 1.5535,0.0815 2.29925,0.22075 -0.13725,0.60025 -0.2165,1.22175 -0.2165,1.86275 0,4.6025 3.73175,8.33325 8.33425,8.33325 0.64,0 1.26275,-0.07925 1.86275,-0.21675 C 62.41875,48.44675 62.5,49.21275 62.5,50.00025 62.5,56.9035 56.9035,62.5 50.0005,62.5 Z M 48.13775,41.88275 c -3.70425,0.847 -6.4705,4.1555 -6.4705,8.11775 0,4.60175 3.73075,8.33325 8.33325,8.33325 3.9605,0 7.27025,-2.76625 8.1165,-6.4705 -5.05625,-0.942 -9.03825,-4.9235 -9.97925,-9.9805 z" /></g>
<g transform="matrix(2.3,0,0,2.3,183,280)"><path d="m 43.86335,65.262713 c -9.0369,0 -16.36335,-7.341829 -16.36335,-16.399262 0,-9.058335 7.32645,-16.400164 16.36335,-16.400164 6.1416,0 11.48535,3.395128 14.28435,8.409346 0.6795,-0.115907 1.36845,-0.210166 2.0799,-0.210166 6.77835,0 12.2724,5.508063 12.2724,12.301025 0,6.791609 -5.49405,12.299221 -12.27195,12.299221 -2.83905,0 -13.0932,0 -16.3647,0 z m 16.3647,-4.100492 c 4.5189,0 8.1828,-3.672493 8.1828,-8.19918 0,-4.528491 -3.6639,-8.200533 -8.1828,-8.200533 -1.63755,0 -3.1527,0.492943 -4.4334,1.323685 C 54.536,40.63676 49.685,36.562877 43.86335,36.562877 c -6.777,0 -12.27195,5.50671 -12.27195,12.300574 0,6.792962 5.49495,12.299221 12.27195,12.299221 3.6999,-4.51e-4 13.27545,-4.51e-4 16.3647,-4.51e-4 z" /></g>
<g transform="matrix(2.3,0,0,2.3,383,280)"><path d="m 43.86335,65.262713 c -9.0369,0 -16.36335,-7.341829 -16.36335,-16.399262 0,-9.058335 7.32645,-16.400164 16.36335,-16.400164 6.1416,0 11.48535,3.395128 14.28435,8.409346 0.6795,-0.115907 1.36845,-0.210166 2.0799,-0.210166 6.77835,0 12.2724,5.508063 12.2724,12.301025 0,6.791609 -5.49405,12.299221 -12.27195,12.299221 -2.83905,0 -13.0932,0 -16.3647,0 z m 16.3647,-4.100492 c 4.5189,0 8.1828,-3.672493 8.1828,-8.19918 0,-4.528491 -3.6639,-8.200533 -8.1828,-8.200533 -1.63755,0 -3.1527,0.492943 -4.4334,1.323685 C 54.536,40.63676 49.685,36.562877 43.86335,36.562877 c -6.777,0 -12.27195,5.50671 -12.27195,12.300574 0,6.792962 5.49495,12.299221 12.27195,12.299221 3.6999,-4.51e-4 13.27545,-4.51e-4 16.3647,-4.51e-4 z" /></g>
<g transform="matrix(1.9,0,0,1.9,160,470)"><path d="m 70.832475,48.6099 h -3.3336 c -0.92025,0 -1.6668,-0.74565 -1.6668,-1.66635 0,-0.92025 0.74655,-1.66545 1.6668,-1.66545 h 3.3336 c 0.9198,0 1.6668,0.7461 1.6668,1.66545 4.5e-4,0.9207 -0.747,1.66635 -1.6668,1.66635 z"
   fill="#010101" /><path
   style="stroke-width:0.45"
   id="path2021"
   d="m 64.284525,37.5156 c -0.65115,0.6507 -1.70595,0.6507 -2.3571,0 -0.65115,-0.65025 -0.65115,-1.70595 0,-2.3562 l 2.3571,-2.3571 c 0.6507,-0.6507 1.70595,-0.6507 2.35665,0 0.65115,0.65025 0.65115,1.7064 0,2.3571 z"
   fill="#010101" /><path
   style="stroke-width:0.45"
   id="path2023"
   d="m 61.827975,50.5224 c 0.42615,-1.11195 0.6705,-2.31615 0.6723,-3.57885 0,-5.5215 -4.47795,-9.9999 -10.0017,-9.9999 -3.2139,0 -6.06645,1.5228 -7.89615,3.87855 -1.19385,-0.35145 -2.45925,-0.5445 -3.76965,-0.5445 -7.36335,0 -13.33305,5.96925 -13.33305,13.3326 0,7.36425 5.9697,13.3335 13.33305,13.3335 2.66445,0 11.02095,0 13.3326,0 5.5233,0 10.0017,-4.47795 10.0017,-9.9999 0,-2.4453 -0.88065,-4.68315 -2.3391,-6.4215 z m -9.3294,-10.2447 c 3.68235,0 6.66765,2.9853 6.66765,6.66585 0,0.43605 -0.0459,0.8604 -0.12555,1.2726 -1.4418,-0.80685 -3.10365,-1.2726 -4.8753,-1.2726 -0.58005,0 -1.14075,0.0765 -1.6947,0.171 -1.1196,-2.0016 -2.74095,-3.68235 -4.6908,-4.87935 1.206,-1.20915 2.87505,-1.9575 4.7187,-1.9575 z m 1.6668,23.3325 c -2.5164,0 -10.31985,0 -13.3335,0 -5.52285,0 -9.99945,-4.4766 -9.99945,-9.9999 0,-5.5233 4.4766,-9.999 9.99945,-9.999 4.74345,0 8.69625,3.3111 9.7218,7.7418 1.04175,-0.6741 2.2779,-1.0764 3.6117,-1.0764 3.68235,0 6.66585,2.98575 6.66585,6.6672 4.5e-4,3.681 -2.9835,6.6663 -6.66585,6.6663 z"
   fill="#010101" /><path
   style="stroke-width:0.45"
   id="path2025"
   d="m 52.498575,33.61005 c -0.92025,0 -1.6668,-0.7461 -1.6668,-1.6659 V 28.611 c 0,-0.9207 0.747,-1.6668 1.6668,-1.6668 0.9207,0 1.6668,0.7461 1.6668,1.6668 v 3.33315 c 0,0.9207 -0.7452,1.6659 -1.6668,1.6659 z"
   fill="#010101" /><path
   style="stroke-width:0.45"
   id="path2027"
   d="m 40.713975,37.5156 -2.3562,-2.3562 c -0.65115,-0.6507 -0.65115,-1.70685 0,-2.3571 0.6498,-0.6507 1.70595,-0.6507 2.3562,0 l 2.35665,2.3571 c 0.65115,0.65025 0.65115,1.70595 0,2.3562 -0.6498,0.6507 -1.70595,0.6507 -2.35665,0 z"
   fill="#010101" /></g>
<g transform="matrix(1.9,0,0,1.9,160,560)"><path d="m 43.86335,65.262713 c -9.0369,0 -16.36335,-7.341829 -16.36335,-16.399262 0,-9.058335 7.32645,-16.400164 16.36335,-16.400164 6.1416,0 11.48535,3.395128 14.28435,8.409346 0.6795,-0.115907 1.36845,-0.210166 2.0799,-0.210166 6.77835,0 12.2724,5.508063 12.2724,12.301025 0,6.791609 -5.49405,12.299221 -12.27195,12.299221 -2.83905,0 -13.0932,0 -16.3647,0 z m 16.3647,-4.100492 c 4.5189,0 8.1828,-3.672493 8.1828,-8.19918 0,-4.528491 -3.6639,-8.200533 -8.1828,-8.200533 -1.63755,0 -3.1527,0.492943 -4.4334,1.323685 C 54.536,40.63676 49.685,36.562877 43.86335,36.562877 c -6.777,0 -12.27195,5.50671 -12.27195,12.300574 0,6.792962 5.49495,12.299221 12.27195,12.299221 3.6999,-4.51e-4 13.27545,-4.51e-4 16.3647,-4.51e-4 z" /></g>
<g transform="matrix(1.9,0,0,1.9,160,650)"><path d="m 70.62485,51.87425 h -3.7485 c -1.0359,0 -1.8756,-0.8397 -1.8756,-1.87425 0,-1.035 0.8397,-1.87515 1.8756,-1.87515 h 3.7485 C 71.6603,48.12485 72.5,48.965 72.5,50 c 0,1.03455 -0.83745,1.87425 -1.87515,1.87425 z"
   fill="#010101" /><path
   style="stroke-width:0.45"
   id="path1385"
   d="m 63.2606,39.39395 c -0.7326,0.7317 -1.92195,0.7317 -2.6523,0 -0.73215,-0.73215 -0.73215,-1.91925 0,-2.65185 l 2.6523,-2.6514 c 0.72945,-0.73215 1.91925,-0.73215 2.65185,0 0.72945,0.73215 0.72945,1.91925 0,2.6514 z"
   fill="#010101" /><path
   style="stroke-width:0.45"
   id="path1387"
   d="m 50.0009,38.74955 c -6.2145,0 -11.25135,5.03685 -11.25135,11.25045 0,6.2127 5.03775,11.24955 11.25135,11.24955 6.2136,0 11.24955,-5.03685 11.24955,-11.24955 0,-6.2136 -5.03595,-11.25045 -11.24955,-11.25045 z m 0,18.7506 c -4.14135,0 -7.5006,-3.3588 -7.5006,-7.50015 0,-4.14225 3.35835,-7.50015 7.5006,-7.50015 4.14225,0 7.49925,3.3579 7.49925,7.50015 0,4.14135 -3.3579,7.50015 -7.49925,7.50015 z"
   fill="#010101" /><path
   style="stroke-width:0.45"
   id="path1389"
   d="m 50.0009,35.00015 c -1.0359,0 -1.87515,-0.84015 -1.87515,-1.87515 v -3.74985 c 0,-1.035 0.83925,-1.87515 1.87515,-1.87515 1.0359,0 1.87515,0.84015 1.87515,1.87515 V 33.125 c 0,1.035 -0.8415,1.87515 -1.87515,1.87515 z"
   fill="#010101" /><path
   style="stroke-width:0.45"
   id="path1391"
   d="M 36.7421,39.39395 34.0907,36.7421 c -0.73215,-0.7317 -0.73215,-1.91925 0,-2.6514 0.73215,-0.73215 1.91925,-0.73215 2.6514,0 l 2.65185,2.6514 c 0.7317,0.7326 0.7317,1.9197 0,2.65185 -0.73215,0.7317 -1.91925,0.7317 -2.65185,0 z"
   fill="#010101" /><path
   style="stroke-width:0.45"
   id="path1393"
   d="m 35.00015,50 c 0,1.03455 -0.84015,1.87425 -1.87515,1.87425 H 29.37425 C 28.33925,51.87425 27.5,51.03455 27.5,50 c 0,-1.035 0.84015,-1.87515 1.87425,-1.87515 H 33.125 c 1.0359,0 1.87515,0.84015 1.87515,1.87515 z"
   fill="#010101" /><path
   style="stroke-width:0.45"
   id="path1395"
   d="m 36.7421,60.6065 c 0.7326,-0.7317 1.9197,-0.7317 2.65185,0 0.7317,0.7317 0.7317,1.91925 0,2.65185 L 36.7421,65.9093 c -0.7317,0.7326 -1.91925,0.7326 -2.6514,0 -0.73215,-0.73125 -0.73215,-1.91925 0,-2.65095 z"
   fill="#010101" /><path
   style="stroke-width:0.45"
   id="path1397"
   d="m 50.0009,64.99985 c 1.0359,0 1.87515,0.8388 1.87515,1.87425 v 3.75075 c 0,1.03545 -0.83925,1.87515 -1.87515,1.87515 -1.0359,0 -1.87515,-0.8397 -1.87515,-1.87515 V 66.8741 c 0,-1.03545 0.83925,-1.87425 1.87515,-1.87425 z"
   fill="#010101" /><path
   style="stroke-width:0.45"
   id="path1399"
   d="m 63.2606,60.6065 2.65185,2.65185 c 0.72945,0.7317 0.72945,1.9197 0,2.65095 -0.7326,0.7326 -1.92195,0.7326 -2.65185,0 l -2.6523,-2.65095 c -0.73215,-0.7326 -0.73215,-1.92015 0,-2.65185 0.7299,-0.7326 1.91745,-0.7326 2.6523,0 z"
   fill="#010101" /></g>
<g transform="matrix(4,0,0,4,-35,-40)"><path d="m 70.62485,51.87425 h -3.7485 c -1.0359,0 -1.8756,-0.8397 -1.8756,-1.87425 0,-1.035 0.8397,-1.87515 1.8756,-1.87515 h 3.7485 C 71.6603,48.12485 72.5,48.965 72.5,50 c 0,1.03455 -0.83745,1.87425 -1.87515,1.87425 z"
   fill="#010101" /><path
   style="stroke-width:0.45"
   id="path1385"
   d="m 63.2606,39.39395 c -0.7326,0.7317 -1.92195,0.7317 -2.6523,0 -0.73215,-0.73215 -0.73215,-1.91925 0,-2.65185 l 2.6523,-2.6514 c 0.72945,-0.73215 1.91925,-0.73215 2.65185,0 0.72945,0.73215 0.72945,1.91925 0,2.6514 z"
   fill="#010101" /><path
   style="stroke-width:0.45"
   id="path1387"
   d="m 50.0009,38.74955 c -6.2145,0 -11.25135,5.03685 -11.25135,11.25045 0,6.2127 5.03775,11.24955 11.25135,11.24955 6.2136,0 11.24955,-5.03685 11.24955,-11.24955 0,-6.2136 -5.03595,-11.25045 -11.24955,-11.25045 z m 0,18.7506 c -4.14135,0 -7.5006,-3.3588 -7.5006,-7.50015 0,-4.14225 3.35835,-7.50015 7.5006,-7.50015 4.14225,0 7.49925,3.3579 7.49925,7.50015 0,4.14135 -3.3579,7.50015 -7.49925,7.50015 z"
   fill="#010101" /><path
   style="stroke-width:0.45"
   id="path1389"
   d="m 50.0009,35.00015 c -1.0359,0 -1.87515,-0.84015 -1.87515,-1.87515 v -3.74985 c 0,-1.035 0.83925,-1.87515 1.87515,-1.87515 1.0359,0 1.87515,0.84015 1.87515,1.87515 V 33.125 c 0,1.035 -0.8415,1.87515 -1.87515,1.87515 z"
   fill="#010101" /><path
   style="stroke-width:0.45"
   id="path1391"
   d="M 36.7421,39.39395 34.0907,36.7421 c -0.73215,-0.7317 -0.73215,-1.91925 0,-2.6514 0.73215,-0.73215 1.91925,-0.73215 2.6514,0 l 2.65185,2.6514 c 0.7317,0.7326 0.7317,1.9197 0,2.65185 -0.73215,0.7317 -1.91925,0.7317 -2.65185,0 z"
   fill="#010101" /><path
   style="stroke-width:0.45"
   id="path1393"
   d="m 35.00015,50 c 0,1.03455 -0.84015,1.87425 -1.87515,1.87425 H 29.37425 C 28.33925,51.87425 27.5,51.03455 27.5,50 c 0,-1.035 0.84015,-1.87515 1.87425,-1.87515 H 33.125 c 1.0359,0 1.87515,0.84015 1.87515,1.87515 z"
   fill="#010101" /><path
   style="stroke-width:0.45"
   id="path1395"
   d="m 36.7421,60.6065 c 0.7326,-0.7317 1.9197,-0.7317 2.65185,0 0.7317,0.7317 0.7317,1.91925 0,2.65185 L 36.7421,65.9093 c -0.7317,0.7326 -1.91925,0.7326 -2.6514,0 -0.73215,-0.73125 -0.73215,-1.91925 0,-2.65095 z"
   fill="#010101" /><path
   style="stroke-width:0.45"
   id="path1397"
   d="m 50.0009,64.99985 c 1.0359,0 1.87515,0.8388 1.87515,1.87425 v 3.75075 c 0,1.03545 -0.83925,1.87515 -1.87515,1.87515 -1.0359,0 -1.87515,-0.8397 -1.87515,-1.87515 V 66.8741 c 0,-1.03545 0.83925,-1.87425 1.87515,-1.87425 z"
   fill="#010101" /><path
   style="stroke-width:0.45"
   id="path1399"
   d="m 63.2606,60.6065 2.65185,2.65185 c 0.72945,0.7317 0.72945,1.9197 0,2.65095 -0.7326,0.7326 -1.92195,0.7326 -2.65185,0 l -2.6523,-2.65095 c -0.73215,-0.7326 -0.73215,-1.92015 0,-2.65185 0.7299,-0.7326 1.91745,-0.7326 2.6523,0 z"
   fill="#010101" /></g>
<g transform="matrix(1.6,0,0,1.6,423,206)"><path d="M10.03,14.31V9.84c0-0.3,0.1-0.55,0.3-0.75s0.45-0.3,0.74-0.3h4.48c0.29,0,0.54,0.1,0.74,0.3s0.3,0.45,0.3,0.75
	c0,0.29-0.1,0.53-0.3,0.73s-0.45,0.29-0.74,0.29h-1.95l6.06,6.06c0.18,0.21,0.26,0.46,0.26,0.78c0,0.29-0.09,0.53-0.26,0.72
	c-0.2,0.19-0.46,0.28-0.79,0.28c-0.3,0-0.55-0.09-0.73-0.28l-6.02-6.05v1.95c0,0.3-0.1,0.55-0.3,0.75c-0.2,0.2-0.45,0.3-0.75,0.3
	c-0.29,0-0.54-0.1-0.74-0.31S10.03,14.6,10.03,14.31z" /></g>
</svg>