<?xml version="1.0" encoding="iso-8859-5"?>
<svg xmlns="http://www.w3.org/2000/svg" height="800" width="600" version="1.1" xmlns:xlink="http://www.w3.org/1999/xlink">
<g font-family="Droid Sans">
<text style="text-anchor:start;" font-size="30px" x="20" y="40">Saint-Petersburg</text>
<text style="text-anchor:end;" font-size="30px" x="580" y="40">вс 2020/08/30 13:20</text>
<text style="text-anchor:end;" font-size="100px" x="425" y="150">15</text>
<text style="text-anchor:start;" font-size="50px" x="420" y="145">,6</text>
<circle cx="440" cy="80" r="7" stroke="black" stroke-width="3" fill="none"/><text style="text-anchor:start;" font-size="35px" x="450" y="100">C</text><line x1="490" x2="590" y1="118" y2="118" style="fill:none;stroke:black;stroke-width:1px;"/><text style="text-anchor:end;" font-size="30px" x="400" y="195">82%</text>
<text style="text-anchor:end;" font-size="30px" x="550" y="195">1006 hPa</text>
<text style="text-anchor:end;" font-size="30px" x="550" y="235">W 5 m/s</text>
<text style="text-anchor:end;" font-size="30px" x="550" y="275">пасмурно</text>
<text style="text-anchor:end;" font-size="35px" x="550" y="110">17</text>
<circle cx="555" cy="88" r="4" stroke="black" stroke-width="3" fill="none"/><text style="text-anchor:start;" font-size="25px" x="560" y="100">C</text><text style="text-anchor:end;" font-size="35px" x="550" y="150">13</text>
<circle cx="555" cy="130" r="4" stroke="black" stroke-width="3" fill="none"/><text style="text-anchor:start;" font-size="25px" x="560" y="142">C</text><text style="text-anchor:end;" font-size="35px" x="145" y="330">15:00</text><text style="text-anchor:end;" font-size="35px" x="70" y="490">17</text>
<circle cx="75" cy="465" r="4" stroke="black" stroke-width="2" fill="none"/><text style="text-anchor:start;" font-size="25px" x="80" y="480">C</text><text style="text-anchor:end;" font-size="35px" x="155" y="490">16</text>
<circle cx="160" cy="465" r="4" stroke="black" stroke-width="2" fill="none"/><text style="text-anchor:start;" font-size="25px" x="165" y="480">C</text><line x1="112" x2="98" y1="460" y2="490" style="fill:none;stroke:black;stroke-linecap:round;stroke-width:2px;"/><text style="text-anchor:end;" font-size="35px" x="345" y="330">18:00</text><text style="text-anchor:end;" font-size="35px" x="270" y="490">16</text>
<circle cx="275" cy="465" r="4" stroke="black" stroke-width="2" fill="none"/><text style="text-anchor:start;" font-size="25px" x="280" y="480">C</text><text style="text-anchor:end;" font-size="35px" x="355" y="490">14</text>
<circle cx="360" cy="465" r="4" stroke="black" stroke-width="2" fill="none"/><text style="text-anchor:start;" font-size="25px" x="365" y="480">C</text><line x1="312" x2="298" y1="460" y2="490" style="fill:none;stroke:black;stroke-linecap:round;stroke-width:2px;"/><text style="text-anchor:end;" font-size="35px" x="545" y="330">21:00</text><text style="text-anchor:end;" font-size="35px" x="470" y="490">16</text>
<circle cx="475" cy="465" r="4" stroke="black" stroke-width="2" fill="none"/><text style="text-anchor:start;" font-size="25px" x="480" y="480">C</text><text style="text-anchor:end;" font-size="35px" x="555" y="490">13</text>
<circle cx="560" cy="465" r="4" stroke="black" stroke-width="2" fill="none"/><text style="text-anchor:start;" font-size="25px" x="565" y="480">C</text><line x1="512" x2="498" y1="460" y2="490" style="fill:none;stroke:black;stroke-linecap:round;stroke-width:2px;"/><line x1="200" x2="200" y1="300" y2="490" style="fill:none;stroke:black;stroke-width:2px;"/><line x1="400" x2="400" y1="300" y2="490" style="fill:none;stroke:black;stroke-width:2px;"/><text style="text-anchor:end;" font-size="35px" x="185" y="575">понедельник</text>
<text style="text-anchor:end;" font-size="35px" x="393" y="575">13</text>
<circle cx="398" cy="550" r="4" stroke="black" stroke-width="2" fill="none"/><text style="text-anchor:start;" font-size="25px" x="403" y="565">C</text><text style="text-anchor:end;" font-size="35px" x="550" y="575">17</text>
<circle cx="555" cy="550" r="4" stroke="black" stroke-width="2" fill="none"/><text style="text-anchor:start;" font-size="25px" x="560" y="565">C</text><line x1="433" x2="495" y1="565" y2="565" style="fill:none;stroke:black;stroke-linecap:round;stroke-width:10px;"/><text style="text-anchor:end;" font-size="35px" x="185" y="665">вторник</text>
<text style="text-anchor:end;" font-size="35px" x="380" y="665">12</text>
<circle cx="385" cy="640" r="4" stroke="black" stroke-width="2" fill="none"/><text style="text-anchor:start;" font-size="25px" x="390" y="655">C</text><text style="text-anchor:end;" font-size="35px" x="550" y="665">17</text>
<circle cx="555" cy="640" r="4" stroke="black" stroke-width="2" fill="none"/><text style="text-anchor:start;" font-size="25px" x="560" y="655">C</text><line x1="420" x2="495" y1="655" y2="655" style="fill:none;stroke:black;stroke-linecap:round;stroke-width:10px;"/><text style="text-anchor:end;" font-size="35px" x="185" y="755">среда</text>
<text style="text-anchor:end;" font-size="35px" x="355" y="755">10</text>
<circle cx="360" cy="730" r="4" stroke="black" stroke-width="2" fill="none"/><text style="text-anchor:start;" font-size="25px" x="365" y="745">C</text><text style="text-anchor:end;" font-size="35px" x="550" y="755">17</text>
<circle cx="555" cy="730" r="4" stroke="black" stroke-width="2" fill="none"/><text style="text-anchor:start;" font-size="25px" x="560" y="745">C</text><line x1="395" x2="495" y1="745" y2="745" style="fill:none;stroke:black;stroke-linecap:round;stroke-width:10px;"/></g>
<g transform="matrix(4,0,0,4,-35,-40)"><path d="M43.945,65.639c-8.835,0-15.998-7.162-15.998-15.998  c0-8.836,7.163-15.998,15.998-15.998c6.004,0,11.229,3.312,13.965,8.203c0.664-0.113,1.338-0.205,2.033-0.205  c6.627,0,11.999,5.373,11.999,12c0,6.625-5.372,11.998-11.999,11.998C57.168,65.639,47.143,65.639,43.945,65.639z M59.943,61.639  c4.418,0,8-3.582,8-7.998c0-4.418-3.582-8-8-8c-1.6,0-3.082,0.481-4.333,1.291c-1.231-5.316-5.974-9.29-11.665-9.29  c-6.626,0-11.998,5.372-11.998,11.999c0,6.626,5.372,11.998,11.998,11.998C47.562,61.639,56.924,61.639,59.943,61.639z" /></g>
<g transform="matrix(1.9,0,0,1.9,8,300)"><path d="m 59.999,65.64 c -0.266,0 -0.614,0 -1,0 0,-1.372 -0.319,-2.742 -0.943,-4 0.777,0 1.451,0 1.943,0 4.418,0 7.999,-3.58 7.999,-7.998 0,-4.418 -3.581,-7.999 -7.999,-7.999 -1.6,0 -3.083,0.481 -4.334,1.29 -1.231,-5.316 -5.973,-9.289 -11.664,-9.289 -6.627,0 -11.998,5.372 -11.998,11.998 0,5.953 4.339,10.879 10.023,11.822 -0.637,1.217 -0.969,2.549 -1.012,3.887 -7.406,-1.399 -13.012,-7.895 -13.012,-15.709 0,-8.835 7.162,-15.998 15.998,-15.998 6.004,0 11.229,3.312 13.965,8.204 0.664,-0.114 1.337,-0.205 2.033,-0.205 6.627,0 11.998,5.372 11.998,11.999 0,6.627 -5.37,11.998 -11.997,11.998 z m -9.998,-7.071 3.535,3.535 c 1.951,1.953 1.951,5.118 0,7.07 -1.953,1.953 -5.119,1.953 -7.07,0 -1.953,-1.952 -1.953,-5.117 0,-7.07 l 3.535,-3.535 z" /></g>
<g transform="matrix(1.9,0,0,1.9,208,300)"><path d="m 59.999,65.64 c -0.266,0 -0.614,0 -1,0 0,-1.372 -0.319,-2.742 -0.943,-4 0.777,0 1.451,0 1.943,0 4.418,0 7.999,-3.58 7.999,-7.998 0,-4.418 -3.581,-7.999 -7.999,-7.999 -1.6,0 -3.083,0.481 -4.334,1.29 -1.231,-5.316 -5.973,-9.289 -11.664,-9.289 -6.627,0 -11.998,5.372 -11.998,11.998 0,5.953 4.339,10.879 10.023,11.822 -0.637,1.217 -0.969,2.549 -1.012,3.887 -7.406,-1.399 -13.012,-7.895 -13.012,-15.709 0,-8.835 7.162,-15.998 15.998,-15.998 6.004,0 11.229,3.312 13.965,8.204 0.664,-0.114 1.337,-0.205 2.033,-0.205 6.627,0 11.998,5.372 11.998,11.999 0,6.627 -5.37,11.998 -11.997,11.998 z m -9.998,-7.071 3.535,3.535 c 1.951,1.953 1.951,5.118 0,7.07 -1.953,1.953 -5.119,1.953 -7.07,0 -1.953,-1.952 -1.953,-5.117 0,-7.07 l 3.535,-3.535 z" /></g>
<g transform="matrix(1.9,0,0,1.9,408,300)"><path d="m 59.999,65.64 c -0.266,0 -0.614,0 -1,0 0,-1.372 -0.319,-2.742 -0.943,-4 0.777,0 1.451,0 1.943,0 4.418,0 7.999,-3.58 7.999,-7.998 0,-4.418 -3.581,-7.999 -7.999,-7.999 -1.6,0 -3.083,0.481 -4.334,1.29 -1.231,-5.316 -5.973,-9.289 -11.664,-9.289 -6.627,0 -11.998,5.372 -11.998,11.998 0,5.953 4.339,10.879 10.023,11.822 -0.637,1.217 -0.969,2.549 -1.012,3.887 -7.406,-1.399 -13.012,-7.895 -13.012,-15.709 0,-8.835 7.162,-15.998 15.998,-15.998 6.004,0 11.229,3.312 13.965,8.204 0.664,-0.114 1.337,-0.205 2.033,-0.205 6.627,0 11.998,5.372 11.998,11.999 0,6.627 -5.37,11.998 -11.997,11.998 z m -9.998,-7.071 3.535,3.535 c 1.951,1.953 1.951,5.118 0,7.07 -1.953,1.953 -5.119,1.953 -7.07,0 -1.953,-1.952 -1.953,-5.117 0,-7.07 l 3.535,-3.535 z" /></g>
<g transform="matrix(1.9,0,0,1.9,160,470)"><path d="M43.945,65.639c-8.835,0-15.998-7.162-15.998-15.998  c0-8.836,7.163-15.998,15.998-15.998c6.004,0,11.229,3.312,13.965,8.203c0.664-0.113,1.338-0.205,2.033-0.205  c6.627,0,11.999,5.373,11.999,12c0,6.625-5.372,11.998-11.999,11.998C57.168,65.639,47.143,65.639,43.945,65.639z M59.943,61.639  c4.418,0,8-3.582,8-7.998c0-4.418-3.582-8-8-8c-1.6,0-3.082,0.481-4.333,1.291c-1.231-5.316-5.974-9.29-11.665-9.29  c-6.626,0-11.998,5.372-11.998,11.999c0,6.626,5.372,11.998,11.998,11.998C47.562,61.639,56.924,61.639,59.943,61.639z" /></g>
<g transform="matrix(1.9,0,0,1.9,160,560)"><path d="m 59.999,65.64 c -0.266,0 -0.614,0 -1,0 0,-1.372 -0.319,-2.742 -0.943,-4 0.777,0 1.451,0 1.943,0 4.418,0 7.999,-3.58 7.999,-7.998 0,-4.418 -3.581,-7.999 -7.999,-7.999 -1.6,0 -3.083,0.481 -4.334,1.29 -1.231,-5.316 -5.973,-9.289 -11.664,-9.289 -6.627,0 -11.998,5.372 -11.998,11.998 0,5.953 4.339,10.879 10.023,11.822 -0.637,1.217 -0.969,2.549 -1.012,3.887 -7.406,-1.399 -13.012,-7.895 -13.012,-15.709 0,-8.835 7.162,-15.998 15.998,-15.998 6.004,0 11.229,3.312 13.965,8.204 0.664,-0.114 1.337,-0.205 2.033,-0.205 6.627,0 11.998,5.372 11.998,11.999 0,6.627 -5.37,11.998 -11.997,11.998 z m -9.998,-7.071 3.535,3.535 c 1.951,1.953 1.951,5.118 0,7.07 -1.953,1.953 -5.119,1.953 -7.07,0 -1.953,-1.952 -1.953,-5.117 0,-7.07 l 3.535,-3.535 z" /></g>
<g transform="matrix(1.9,0,0,1.9,160,650)"><path d="M71.997,51.999h-3.998c-1.105,0-2-0.895-2-1.999s0.895-2,2-2h3.998  c1.105,0,2,0.896,2,2S73.103,51.999,71.997,51.999z M64.142,38.688c-0.781,0.781-2.049,0.781-2.828,0  c-0.781-0.781-0.781-2.047,0-2.828l2.828-2.828c0.779-0.781,2.047-0.781,2.828,0c0.779,0.781,0.779,2.047,0,2.828L64.142,38.688z   M50.001,61.998c-6.627,0-12-5.372-12-11.998c0-6.627,5.372-11.999,12-11.999c6.627,0,11.998,5.372,11.998,11.999  C61.999,56.626,56.628,61.998,50.001,61.998z M50.001,42.001c-4.418,0-8,3.581-8,7.999c0,4.417,3.583,7.999,8,7.999  s7.998-3.582,7.998-7.999C57.999,45.582,54.419,42.001,50.001,42.001z M50.001,34.002c-1.105,0-2-0.896-2-2v-3.999  c0-1.104,0.895-2,2-2c1.104,0,2,0.896,2,2v3.999C52.001,33.106,51.104,34.002,50.001,34.002z M35.86,38.688l-2.828-2.828  c-0.781-0.781-0.781-2.047,0-2.828s2.047-0.781,2.828,0l2.828,2.828c0.781,0.781,0.781,2.047,0,2.828S36.641,39.469,35.86,38.688z   M34.002,50c0,1.104-0.896,1.999-2,1.999h-4c-1.104,0-1.999-0.895-1.999-1.999s0.896-2,1.999-2h4C33.107,48,34.002,48.896,34.002,50  z M35.86,61.312c0.781-0.78,2.047-0.78,2.828,0c0.781,0.781,0.781,2.048,0,2.828l-2.828,2.828c-0.781,0.781-2.047,0.781-2.828,0  c-0.781-0.78-0.781-2.047,0-2.828L35.86,61.312z M50.001,65.998c1.104,0,2,0.895,2,1.999v4c0,1.104-0.896,2-2,2  c-1.105,0-2-0.896-2-2v-4C48.001,66.893,48.896,65.998,50.001,65.998z M64.142,61.312l2.828,2.828c0.779,0.781,0.779,2.048,0,2.828  c-0.781,0.781-2.049,0.781-2.828,0l-2.828-2.828c-0.781-0.78-0.781-2.047,0-2.828C62.093,60.531,63.36,60.531,64.142,61.312z" /></g>
</svg>