<?xml version="1.0" encoding="iso-8859-1"?>
<svg xmlns="http://www.w3.org/2000/svg" height="800" width="600" version="1.1" xmlns:xlink="http://www.w3.org/1999/xlink">
<g font-family="Droid Sans">
<text style="text-anchor:start;" font-size="30px" x="20" y="40">Granada</text>
<text style="text-anchor:end;" font-size="30px" x="580" y="40">dom 2020/08/30 12:19</text>
<text style="text-anchor:end;" font-size="100px" x="425" y="150">21</text>
<text style="text-anchor:start;" font-size="50px" x="420" y="145">,3</text>
<circle cx="440" cy="80" r="7" stroke="black" stroke-width="3" fill="none"/><text style="text-anchor:start;" font-size="35px" x="450" y="100">C</text><line x1="490" x2="590" y1="118" y2="118" style="fill:none;stroke:black;stroke-width:1px;"/><text style="text-anchor:end;" font-size="30px" x="400" y="195">28%</text>
<text style="text-anchor:end;" font-size="30px" x="550" y="195">1015 hPa</text>
<text style="text-anchor:end;" font-size="30px" x="550" y="235">N 2 m/s</text>
<text style="text-anchor:end;" font-size="30px" x="550" y="275">algo de nubes</text>
<text style="text-anchor:end;" font-size="35px" x="550" y="110">27</text>
<circle cx="555" cy="88" r="4" stroke="black" stroke-width="3" fill="none"/><text style="text-anchor:start;" font-size="25px" x="560" y="100">C</text><text style="text-anchor:end;" font-size="35px" x="550" y="150">13</text>
<circle cx="555" cy="130" r="4" stroke="black" stroke-width="3" fill="none"/><text style="text-anchor:start;" font-size="25px" x="560" y="142">C</text><text style="text-anchor:end;" font-size="35px" x="145" y="330">14:00</text><text style="text-anchor:end;" font-size="35px" x="70" y="490">27</text>
<circle cx="75" cy="465" r="4" stroke="black" stroke-width="2" fill="none"/><text style="text-anchor:start;" font-size="25px" x="80" y="480">C</text><text style="text-anchor:end;" font-size="35px" x="155" y="490">18</text>
<circle cx="160" cy="465" r="4" stroke="black" stroke-width="2" fill="none"/><text style="text-anchor:start;" font-size="25px" x="165" y="480">C</text><line x1="112" x2="98" y1="460" y2="490" style="fill:none;stroke:black;stroke-linecap:round;stroke-width:2px;"/><text style="text-anchor:end;" font-size="35px" x="345" y="330">17:00</text><text style="text-anchor:end;" font-size="35px" x="270" y="490">28</text>
<circle cx="275" cy="465" r="4" stroke="black" stroke-width="2" fill="none"/><text style="text-anchor:start;" font-size="25px" x="280" y="480">C</text><text style="text-anchor:end;" font-size="35px" x="355" y="490">14</text>
<circle cx="360" cy="465" r="4" stroke="black" stroke-width="2" fill="none"/><text style="text-anchor:start;" font-size="25px" x="365" y="480">C</text><line x1="312" x2="298" y1="460" y2="490" style="fill:none;stroke:black;stroke-linecap:round;stroke-width:2px;"/><text style="text-anchor:end;" font-size="35px" x="545" y="330">20:00</text><text style="text-anchor:end;" font-size="35px" x="470" y="490">29</text>
<circle cx="475" cy="465" r="4" stroke="black" stroke-width="2" fill="none"/><text style="text-anchor:start;" font-size="25px" x="480" y="480">C</text><text style="text-anchor:end;" font-size="35px" x="555" y="490">16</text>
<circle cx="560" cy="465" r="4" stroke="black" stroke-width="2" fill="none"/><text style="text-anchor:start;" font-size="25px" x="565" y="480">C</text><line x1="512" x2="498" y1="460" y2="490" style="fill:none;stroke:black;stroke-linecap:round;stroke-width:2px;"/><line x1="200" x2="200" y1="300" y2="490" style="fill:none;stroke:black;stroke-width:2px;"/><line x1="400" x2="400" y1="300" y2="490" style="fill:none;stroke:black;stroke-width:2px;"/><text style="text-anchor:end;" font-size="35px" x="185" y="575">lunes</text>
<text style="text-anchor:end;" font-size="35px" x="355" y="575">13</text>
<circle cx="360" cy="550" r="4" stroke="black" stroke-width="2" fill="none"/><text style="text-anchor:start;" font-size="25px" x="365" y="565">C</text><text style="text-anchor:end;" font-size="35px" x="544" y="575">29</text>
<circle cx="549" cy="550" r="4" stroke="black" stroke-width="2" fill="none"/><text style="text-anchor:start;" font-size="25px" x="554" y="565">C</text><line x1="395" x2="489" y1="565" y2="565" style="fill:none;stroke:black;stroke-linecap:round;stroke-width:10px;"/><text style="text-anchor:end;" font-size="35px" x="185" y="665">martes</text>
<text style="text-anchor:end;" font-size="35px" x="365" y="665">15</text>
<circle cx="370" cy="640" r="4" stroke="black" stroke-width="2" fill="none"/><text style="text-anchor:start;" font-size="25px" x="375" y="655">C</text><text style="text-anchor:end;" font-size="35px" x="550" y="665">30</text>
<circle cx="555" cy="640" r="4" stroke="black" stroke-width="2" fill="none"/><text style="text-anchor:start;" font-size="25px" x="560" y="655">C</text><line x1="405" x2="495" y1="655" y2="655" style="fill:none;stroke:black;stroke-linecap:round;stroke-width:10px;"/><text style="text-anchor:end;" font-size="35px" x="185" y="755">miércoles</text>
<text style="text-anchor:end;" font-size="35px" x="360" y="755">14</text>
<circle cx="365" cy="730" r="4" stroke="black" stroke-width="2" fill="none"/><text style="text-anchor:start;" font-size="25px" x="370" y="745">C</text><text style="text-anchor:end;" font-size="35px" x="550" y="755">30</text>
<circle cx="555" cy="730" r="4" stroke="black" stroke-width="2" fill="none"/><text style="text-anchor:start;" font-size="25px" x="560" y="745">C</text><line x1="400" x2="495" y1="745" y2="745" style="fill:none;stroke:black;stroke-linecap:round;stroke-width:10px;"/></g>
<g transform="matrix(4,0,0,4,-35,-40)"><path d="M43.945,65.639c-8.835,0-15.998-7.162-15.998-15.998  c0-8.836,7.163-15.998,15.998-15.998c6.004,0,11.229,3.312,13.965,8.203c0.664-0.113,1.338-0.205,2.033-0.205  c6.627,0,11.999,5.373,11.999,12c0,6.625-5.372,11.998-11.999,11.998C57.168,65.639,47.143,65.639,43.945,65.639z M59.943,61.639  c4.418,0,8-3.582,8-7.998c0-4.418-3.582-8-8-8c-1.6,0-3.082,0.481-4.333,1.291c-1.231-5.316-5.974-9.29-11.665-9.29  c-6.626,0-11.998,5.372-11.998,11.999c0,6.626,5.372,11.998,11.998,11.998C47.562,61.639,56.924,61.639,59.943,61.639z" /></g>
<g transform="matrix(1.9,0,0,1.9,8,300)"><path d="M43.945,65.639c-8.835,0-15.998-7.162-15.998-15.998  c0-8.836,7.163-15.998,15.998-15.998c6.004,0,11.229,3.312,13.965,8.203c0.664-0.113,1.338-0.205,2.033-0.205  c6.627,0,11.999,5.373,11.999,12c0,6.625-5.372,11.998-11.999,11.998C57.168,65.639,47.143,65.639,43.945,65.639z M59.943,61.639  c4.418,0,8-3.582,8-7.998c0-4.418-3.582-8-8-8c-1.6,0-3.082,0.481-4.333,1.291c-1.231-5.316-5.974-9.29-11.665-9.29  c-6.626,0-11.998,5.372-11.998,11.999c0,6.626,5.372,11.998,11.998,11.998C47.562,61.639,56.924,61.639,59.943,61.639z" /></g>
<g transform="matrix(1.9,0,0,1.9,208,300)"><path d="M43.945,65.639c-8.835,0-15.998-7.162-15.998-15.998  c0-8.836,7.163-15.998,15.998-15.998c6.004,0,11.229,3.312,13.965,8.203c0.664-0.113,1.338-0.205,2.033-0.205  c6.627,0,11.999,5.373,11.999,12c0,6.625-5.372,11.998-11.999,11.998C57.168,65.639,47.143,65.639,43.945,65.639z M59.943,61.639  c4.418,0,8-3.582,8-7.998c0-4.418-3.582-8-8-8c-1.6,0-3.082,0.481-4.333,1.291c-1.231-5.316-5.974-9.29-11.665-9.29  c-6.626,0-11.998,5.372-11.998,11.999c0,6.626,5.372,11.998,11.998,11.998C47.562,61.639,56.924,61.639,59.943,61.639z" /></g>
<g transform="matrix(1.9,0,0,1.9,408,300)"><path d="M43.945,65.639c-8.835,0-15.998-7.162-15.998-15.998  c0-8.836,7.163-15.998,15.998-15.998c6.004,0,11.229,3.312,13.965,8.203c0.664-0.113,1.338-0.205,2.033-0.205  c6.627,0,11.999,5.373,11.999,12c0,6.625-5.372,11.998-11.999,11.998C57.168,65.639,47.143,65.639,43.945,65.639z M59.943,61.639  c4.418,0,8-3.582,8-7.998c0-4.418-3.582-8-8-8c-1.6,0-3.082,0.481-4.333,1.291c-1.231-5.316-5.974-9.29-11.665-9.29  c-6.626,0-11.998,5.372-11.998,11.999c0,6.626,5.372,11.998,11.998,11.998C47.562,61.639,56.924,61.639,59.943,61.639z" /></g>
<g transform="matrix(1.9,0,0,1.9,160,470)"><path d="M43.945,65.639c-8.835,0-15.998-7.162-15.998-15.998  c0-8.836,7.163-15.998,15.998-15.998c6.004,0,11.229,3.312,13.965,8.203c0.664-0.113,1.338-0.205,2.033-0.205  c6.627,0,11.999,5.373,11.999,12c0,6.625-5.372,11.998-11.999,11.998C57.168,65.639,47.143,65.639,43.945,65.639z M59.943,61.639  c4.418,0,8-3.582,8-7.998c0-4.418-3.582-8-8-8c-1.6,0-3.082,0.481-4.333,1.291c-1.231-5.316-5.974-9.29-11.665-9.29  c-6.626,0-11.998,5.372-11.998,11.999c0,6.626,5.372,11.998,11.998,11.998C47.562,61.639,56.924,61.639,59.943,61.639z" /></g>
<g transform="matrix(1.9,0,0,1.9,160,560)"><path d="M43.945,65.639c-8.835,0-15.998-7.162-15.998-15.998  c0-8.836,7.163-15.998,15.998-15.998c6.004,0,11.229,3.312,13.965,8.203c0.664-0.113,1.338-0.205,2.033-0.205  c6.627,0,11.999,5.373,11.999,12c0,6.625-5.372,11.998-11.999,11.998C57.168,65.639,47.143,65.639,43.945,65.639z M59.943,61.639  c4.418,0,8-3.582,8-7.998c0-4.418-3.582-8-8-8c-1.6,0-3.082,0.481-4.333,1.291c-1.231-5.316-5.974-9.29-11.665-9.29  c-6.626,0-11.998,5.372-11.998,11.999c0,6.626,5.372,11.998,11.998,11.998C47.562,61.639,56.924,61.639,59.943,61.639z" /></g>
<g transform="matrix(1.9,0,0,1.9,160,650)"><path d="M43.945,65.639c-8.835,0-15.998-7.162-15.998-15.998  c0-8.836,7.163-15.998,15.998-15.998c6.004,0,11.229,3.312,13.965,8.203c0.664-0.113,1.338-0.205,2.033-0.205  c6.627,0,11.999,5.373,11.999,12c0,6.625-5.372,11.998-11.999,11.998C57.168,65.639,47.143,65.639,43.945,65.639z M59.943,61.639  c4.418,0,8-3.582,8-7.998c0-4.418-3.582-8-8-8c-1.6,0-3.082,0.481-4.333,1.291c-1.231-5.316-5.974-9.29-11.665-9.29  c-6.626,0-11.998,5.372-11.998,11.999c0,6.626,5.372,11.998,11.998,11.998C47.562,61.639,56.924,61.639,59.943,61.639z" /></g>
</svg>