<?xml version="1.0" encoding="iso-8859-1"?>
<svg xmlns="http://www.w3.org/2000/svg" height="800" width="600" version="1.1" xmlns:xlink="http://www.w3.org/1999/xlink">
<g font-family="Droid Sans">
<text style="text-anchor:start;" font-size="30px" x="20" y="40">McMurdo Station</text>
<text style="text-anchor:end;" font-size="30px" x="580" y="40">sun 2020/08/30 22:17</text>
<text style="text-anchor:end;" font-size="100px" x="425" y="150">-24</text>
<text style="text-anchor:start;" font-size="50px" x="420" y="145">,3</text>
<circle cx="440" cy="80" r="7" stroke="black" stroke-width="3" fill="none"/><text style="text-anchor:start;" font-size="35px" x="450" y="100">C</text><line x1="490" x2="590" y1="118" y2="118" style="fill:none;stroke:black;stroke-width:1px;"/><text style="text-anchor:end;" font-size="30px" x="400" y="195">84%</text>
<text style="text-anchor:end;" font-size="30px" x="550" y="195">985 hPa</text>
<text style="text-anchor:end;" font-size="30px" x="550" y="235">ESE 5 m/s</text>
<text style="text-anchor:end;" font-size="30px" x="550" y="275">overcast clouds</text>
<text style="text-anchor:end;" font-size="35px" x="550" y="110">-18</text>
<circle cx="555" cy="88" r="4" stroke="black" stroke-width="3" fill="none"/><text style="text-anchor:start;" font-size="25px" x="560" y="100">C</text><text style="text-anchor:end;" font-size="35px" x="550" y="150">-24</text>
<circle cx="555" cy="130" r="4" stroke="black" stroke-width="3" fill="none"/><text style="text-anchor:start;" font-size="25px" x="560" y="142">C</text><text style="text-anchor:end;" font-size="35px" x="145" y="330">00:00</text><text style="text-anchor:end;" font-size="35px" x="70" y="490">-19</text>
<circle cx="75" cy="465" r="4" stroke="black" stroke-width="2" fill="none"/><text style="text-anchor:start;" font-size="25px" x="80" y="480">C</text><text style="text-anchor:end;" font-size="35px" x="165" y="490">-23</text>
<circle cx="170" cy="465" r="4" stroke="black" stroke-width="2" fill="none"/><text style="text-anchor:start;" font-size="25px" x="175" y="480">C</text><line x1="112" x2="98" y1="460" y2="490" style="fill:none;stroke:black;stroke-linecap:round;stroke-width:2px;"/><text style="text-anchor:end;" font-size="35px" x="345" y="330">03:00</text><text style="text-anchor:end;" font-size="35px" x="270" y="490">-12</text>
<circle cx="275" cy="465" r="4" stroke="black" stroke-width="2" fill="none"/><text style="text-anchor:start;" font-size="25px" x="280" y="480">C</text><text style="text-anchor:end;" font-size="35px" x="365" y="490">-15</text>
<circle cx="370" cy="465" r="4" stroke="black" stroke-width="2" fill="none"/><text style="text-anchor:start;" font-size="25px" x="375" y="480">C</text><line x1="312" x2="298" y1="460" y2="490" style="fill:none;stroke:black;stroke-linecap:round;stroke-width:2px;"/><text style="text-anchor:end;" font-size="35px" x="545" y="330">06:00</text><text style="text-anchor:end;" font-size="35px" x="470" y="490">-12</text>
<circle cx="475" cy="465" r="4" stroke="black" stroke-width="2" fill="none"/><text style="text-anchor:start;" font-size="25px" x="480" y="480">C</text><text style="text-anchor:end;" font-size="35px" x="565" y="490">-12</text>
<circle cx="570" cy="465" r="4" stroke="black" stroke-width="2" fill="none"/><text style="text-anchor:start;" font-size="25px" x="575" y="480">C</text><line x1="512" x2="498" y1="460" y2="490" style="fill:none;stroke:black;stroke-linecap:round;stroke-width:2px;"/><line x1="200" x2="200" y1="300" y2="490" style="fill:none;stroke:black;stroke-width:2px;"/><line x1="400" x2="400" y1="300" y2="490" style="fill:none;stroke:black;stroke-width:2px;"/><text style="text-anchor:end;" font-size="35px" x="185" y="575">tuesday</text>
<text style="text-anchor:end;" font-size="35px" x="370" y="575">-16</text>
<circle cx="375" cy="550" r="4" stroke="black" stroke-width="2" fill="none"/><text style="text-anchor:start;" font-size="25px" x="380" y="565">C</text><text style="text-anchor:end;" font-size="35px" x="560" y="575">-11</text>
<circle cx="565" cy="550" r="4" stroke="black" stroke-width="2" fill="none"/><text style="text-anchor:start;" font-size="25px" x="570" y="565">C</text><line x1="410" x2="495" y1="565" y2="565" style="fill:none;stroke:black;stroke-linecap:round;stroke-width:10px;"/><text style="text-anchor:end;" font-size="35px" x="185" y="665">wednesday</text>
<text style="text-anchor:end;" font-size="35px" x="415" y="665">-13</text>
<circle cx="420" cy="640" r="4" stroke="black" stroke-width="2" fill="none"/><text style="text-anchor:start;" font-size="25px" x="425" y="655">C</text><text style="text-anchor:end;" font-size="35px" x="560" y="665">-11</text>
<circle cx="565" cy="640" r="4" stroke="black" stroke-width="2" fill="none"/><text style="text-anchor:start;" font-size="25px" x="570" y="655">C</text><line x1="455" x2="495" y1="655" y2="655" style="fill:none;stroke:black;stroke-linecap:round;stroke-width:10px;"/><text style="text-anchor:end;" font-size="35px" x="185" y="755">thursday</text>
<text style="text-anchor:end;" font-size="35px" x="355" y="755">-17</text>
<circle cx="360" cy="730" r="4" stroke="black" stroke-width="2" fill="none"/><text style="text-anchor:start;" font-size="25px" x="365" y="745">C</text><text style="text-anchor:end;" font-size="35px" x="560" y="755">-11</text>
<circle cx="565" cy="730" r="4" stroke="black" stroke-width="2" fill="none"/><text style="text-anchor:start;" font-size="25px" x="570" y="745">C</text><line x1="395" x2="495" y1="745" y2="745" style="fill:none;stroke:black;stroke-linecap:round;stroke-width:10px;"/></g>
<g transform="matrix(4,0,0,4,-35,-40)"><path d="M43.945,65.639c-8.835,0-15.998-7.162-15.998-15.998  c0-8.836,7.163-15.998,15.998-15.998c6.004,0,11.229,3.312,13.965,8.203c0.664-0.113,1.338-0.205,2.033-0.205  c6.627,0,11.999,5.373,11.999,12c0,6.625-5.372,11.998-11.999,11.998C57.168,65.639,47.143,65.639,43.945,65.639z M59.943,61.639  c4.418,0,8-3.582,8-7.998c0-4.418-3.582-8-8-8c-1.6,0-3.082,0.481-4.333,1.291c-1.231-5.316-5.974-9.29-11.665-9.29  c-6.626,0-11.998,5.372-11.998,11.999c0,6.626,5.372,11.998,11.998,11.998C47.562,61.639,56.924,61.639,59.943,61.639z" /></g>
<g transform="matrix(1.9,0,0,1.9,8,300)"><path d="M63.999,64.943v-4.381c2.389-1.385,3.999-3.963,3.999-6.922  c0-4.416-3.581-7.998-7.999-7.998c-1.6,0-3.083,0.48-4.333,1.291c-1.231-5.317-5.974-9.291-11.665-9.291  c-6.627,0-11.998,5.373-11.998,12c0,3.549,1.55,6.729,4,8.924v4.916c-4.777-2.768-8-7.922-8-13.84  c0-8.836,7.163-15.999,15.998-15.999c6.004,0,11.229,3.312,13.965,8.204c0.664-0.113,1.337-0.205,2.033-0.205  c6.627,0,11.999,5.373,11.999,11.998C71.998,58.863,68.655,63.293,63.999,64.943z M42.001,57.641c1.105,0,2,0.896,2,2  c0,1.105-0.895,2-2,2c-1.104,0-1.999-0.895-1.999-2C40.002,58.537,40.897,57.641,42.001,57.641z M42.001,65.641c1.105,0,2,0.895,2,2  c0,1.104-0.895,1.998-2,1.998c-1.104,0-1.999-0.895-1.999-1.998C40.002,66.535,40.897,65.641,42.001,65.641z M50.001,61.641  c1.104,0,2,0.895,2,2c0,1.104-0.896,2-2,2c-1.105,0-2-0.896-2-2C48.001,62.535,48.896,61.641,50.001,61.641z M50.001,69.639  c1.104,0,2,0.896,2,2c0,1.105-0.896,2-2,2c-1.105,0-2-0.895-2-2C48.001,70.535,48.896,69.639,50.001,69.639z M57.999,57.641  c1.105,0,2,0.896,2,2c0,1.105-0.895,2-2,2c-1.104,0-1.999-0.895-1.999-2C56,58.537,56.896,57.641,57.999,57.641z M57.999,65.641  c1.105,0,2,0.895,2,2c0,1.104-0.895,1.998-2,1.998c-1.104,0-1.999-0.895-1.999-1.998C56,66.535,56.896,65.641,57.999,65.641z" /></g>
<g transform="matrix(1.9,0,0,1.9,208,300)"><path d="M63.999,64.943v-4.381c2.389-1.385,3.999-3.963,3.999-6.922  c0-4.416-3.581-7.998-7.999-7.998c-1.6,0-3.083,0.48-4.333,1.291c-1.231-5.317-5.974-9.291-11.665-9.291  c-6.627,0-11.998,5.373-11.998,12c0,3.549,1.55,6.729,4,8.924v4.916c-4.777-2.768-8-7.922-8-13.84  c0-8.836,7.163-15.999,15.998-15.999c6.004,0,11.229,3.312,13.965,8.204c0.664-0.113,1.337-0.205,2.033-0.205  c6.627,0,11.999,5.373,11.999,11.998C71.998,58.863,68.655,63.293,63.999,64.943z M42.001,57.641c1.105,0,2,0.896,2,2  c0,1.105-0.895,2-2,2c-1.104,0-1.999-0.895-1.999-2C40.002,58.537,40.897,57.641,42.001,57.641z M42.001,65.641c1.105,0,2,0.895,2,2  c0,1.104-0.895,1.998-2,1.998c-1.104,0-1.999-0.895-1.999-1.998C40.002,66.535,40.897,65.641,42.001,65.641z M50.001,61.641  c1.104,0,2,0.895,2,2c0,1.104-0.896,2-2,2c-1.105,0-2-0.896-2-2C48.001,62.535,48.896,61.641,50.001,61.641z M50.001,69.639  c1.104,0,2,0.896,2,2c0,1.105-0.896,2-2,2c-1.105,0-2-0.895-2-2C48.001,70.535,48.896,69.639,50.001,69.639z M57.999,57.641  c1.105,0,2,0.896,2,2c0,1.105-0.895,2-2,2c-1.104,0-1.999-0.895-1.999-2C56,58.537,56.896,57.641,57.999,57.641z M57.999,65.641  c1.105,0,2,0.895,2,2c0,1.104-0.895,1.998-2,1.998c-1.104,0-1.999-0.895-1.999-1.998C56,66.535,56.896,65.641,57.999,65.641z" /></g>
<g transform="matrix(1.9,0,0,1.9,408,300)"><path d="M63.999,64.943v-4.381c2.389-1.385,3.999-3.963,3.999-6.922  c0-4.416-3.581-7.998-7.999-7.998c-1.6,0-3.083,0.48-4.333,1.291c-1.231-5.317-5.974-9.291-11.665-9.291  c-6.627,0-11.998,5.373-11.998,12c0,3.549,1.55,6.729,4,8.924v4.916c-4.777-2.768-8-7.922-8-13.84  c0-8.836,7.163-15.999,15.998-15.999c6.004,0,11.229,3.312,13.965,8.204c0.664-0.113,1.337-0.205,2.033-0.205  c6.627,0,11.999,5.373,11.999,11.998C71.998,58.863,68.655,63.293,63.999,64.943z M42.001,57.641c1.105,0,2,0.896,2,2  c0,1.105-0.895,2-2,2c-1.104,0-1.999-0.895-1.999-2C40.002,58.537,40.897,57.641,42.001,57.641z M42.001,65.641c1.105,0,2,0.895,2,2  c0,1.104-0.895,1.998-2,1.998c-1.104,0-1.999-0.895-1.999-1.998C40.002,66.535,40.897,65.641,42.001,65.641z M50.001,61.641  c1.104,0,2,0.895,2,2c0,1.104-0.896,2-2,2c-1.105,0-2-0.896-2-2C48.001,62.535,48.896,61.641,50.001,61.641z M50.001,69.639  c1.104,0,2,0.896,2,2c0,1.105-0.896,2-2,2c-1.105,0-2-0.895-2-2C48.001,70.535,48.896,69.639,50.001,69.639z M57.999,57.641  c1.105,0,2,0.896,2,2c0,1.105-0.895,2-2,2c-1.104,0-1.999-0.895-1.999-2C56,58.537,56.896,57.641,57.999,57.641z M57.999,65.641  c1.105,0,2,0.895,2,2c0,1.104-0.895,1.998-2,1.998c-1.104,0-1.999-0.895-1.999-1.998C56,66.535,56.896,65.641,57.999,65.641z" /></g>
<g transform="matrix(1.9,0,0,1.9,160,470)"><path d="M63.999,64.943v-4.381c2.389-1.385,3.999-3.963,3.999-6.922  c0-4.416-3.581-7.998-7.999-7.998c-1.6,0-3.083,0.48-4.333,1.291c-1.231-5.317-5.974-9.291-11.665-9.291  c-6.627,0-11.998,5.373-11.998,12c0,3.549,1.55,6.729,4,8.924v4.916c-4.777-2.768-8-7.922-8-13.84  c0-8.836,7.163-15.999,15.998-15.999c6.004,0,11.229,3.312,13.965,8.204c0.664-0.113,1.337-0.205,2.033-0.205  c6.627,0,11.999,5.373,11.999,11.998C71.998,58.863,68.655,63.293,63.999,64.943z M42.001,57.641c1.105,0,2,0.896,2,2  c0,1.105-0.895,2-2,2c-1.104,0-1.999-0.895-1.999-2C40.002,58.537,40.897,57.641,42.001,57.641z M42.001,65.641c1.105,0,2,0.895,2,2  c0,1.104-0.895,1.998-2,1.998c-1.104,0-1.999-0.895-1.999-1.998C40.002,66.535,40.897,65.641,42.001,65.641z M50.001,61.641  c1.104,0,2,0.895,2,2c0,1.104-0.896,2-2,2c-1.105,0-2-0.896-2-2C48.001,62.535,48.896,61.641,50.001,61.641z M50.001,69.639  c1.104,0,2,0.896,2,2c0,1.105-0.896,2-2,2c-1.105,0-2-0.895-2-2C48.001,70.535,48.896,69.639,50.001,69.639z M57.999,57.641  c1.105,0,2,0.896,2,2c0,1.105-0.895,2-2,2c-1.104,0-1.999-0.895-1.999-2C56,58.537,56.896,57.641,57.999,57.641z M57.999,65.641  c1.105,0,2,0.895,2,2c0,1.104-0.895,1.998-2,1.998c-1.104,0-1.999-0.895-1.999-1.998C56,66.535,56.896,65.641,57.999,65.641z" /></g>
<g transform="matrix(1.9,0,0,1.9,160,560)"><path d="M63.999,64.943v-4.381c2.389-1.385,3.999-3.963,3.999-6.922  c0-4.416-3.581-7.998-7.999-7.998c-1.6,0-3.083,0.48-4.333,1.291c-1.231-5.317-5.974-9.291-11.665-9.291  c-6.627,0-11.998,5.373-11.998,12c0,3.549,1.55,6.729,4,8.924v4.916c-4.777-2.768-8-7.922-8-13.84  c0-8.836,7.163-15.999,15.998-15.999c6.004,0,11.229,3.312,13.965,8.204c0.664-0.113,1.337-0.205,2.033-0.205  c6.627,0,11.999,5.373,11.999,11.998C71.998,58.863,68.655,63.293,63.999,64.943z M42.001,57.641c1.105,0,2,0.896,2,2  c0,1.105-0.895,2-2,2c-1.104,0-1.999-0.895-1.999-2C40.002,58.537,40.897,57.641,42.001,57.641z M42.001,65.641c1.105,0,2,0.895,2,2  c0,1.104-0.895,1.998-2,1.998c-1.104,0-1.999-0.895-1.999-1.998C40.002,66.535,40.897,65.641,42.001,65.641z M50.001,61.641  c1.104,0,2,0.895,2,2c0,1.104-0.896,2-2,2c-1.105,0-2-0.896-2-2C48.001,62.535,48.896,61.641,50.001,61.641z M50.001,69.639  c1.104,0,2,0.896,2,2c0,1.105-0.896,2-2,2c-1.105,0-2-0.895-2-2C48.001,70.535,48.896,69.639,50.001,69.639z M57.999,57.641  c1.105,0,2,0.896,2,2c0,1.105-0.895,2-2,2c-1.104,0-1.999-0.895-1.999-2C56,58.537,56.896,57.641,57.999,57.641z M57.999,65.641  c1.105,0,2,0.895,2,2c0,1.104-0.895,1.998-2,1.998c-1.104,0-1.999-0.895-1.999-1.998C56,66.535,56.896,65.641,57.999,65.641z" /></g>
<g transform="matrix(1.9,0,0,1.9,160,650)"><path d="M43.945,65.639c-8.835,0-15.998-7.162-15.998-15.998  c0-8.836,7.163-15.998,15.998-15.998c6.004,0,11.229,3.312,13.965,8.203c0.664-0.113,1.338-0.205,2.033-0.205  c6.627,0,11.999,5.373,11.999,12c0,6.625-5.372,11.998-11.999,11.998C57.168,65.639,47.143,65.639,43.945,65.639z M59.943,61.639  c4.418,0,8-3.582,8-7.998c0-4.418-3.582-8-8-8c-1.6,0-3.082,0.481-4.333,1.291c-1.231-5.316-5.974-9.29-11.665-9.29  c-6.626,0-11.998,5.372-11.998,11.999c0,6.626,5.372,11.998,11.998,11.998C47.562,61.639,56.924,61.639,59.943,61.639z" /></g>
</svg>