<?xml version="1.0" encoding="iso-8859-1"?>
<svg xmlns="http://www.w3.org/2000/svg" height="800" width="600" version="1.1" xmlns:xlink="http://www.w3.org/1999/xlink">
<g font-family="Droid Sans">
<text style="text-anchor:start;" font-size="30px" x="20" y="40">Tokorozawa</text>
<text style="text-anchor:end;" font-size="30px" x="580" y="40">sun 2020/08/30 19:22</text>
<text style="text-anchor:end;" font-size="100px" x="425" y="150">28</text>
<text style="text-anchor:start;" font-size="50px" x="420" y="145">,5</text>
<circle cx="440" cy="80" r="7" stroke="black" stroke-width="3" fill="none"/><text style="text-anchor:start;" font-size="35px" x="450" y="100">C</text><line x1="490" x2="590" y1="118" y2="118" style="fill:none;stroke:black;stroke-width:1px;"/><text style="text-anchor:end;" font-size="30px" x="400" y="195">78%</text>
<text style="text-anchor:end;" font-size="30px" x="550" y="195">1011 hPa</text>
<text style="text-anchor:end;" font-size="30px" x="550" y="235">S 5 m/s</text>
<text style="text-anchor:end;" font-size="30px" x="550" y="275">clear sky</text>
<text style="text-anchor:end;" font-size="35px" x="550" y="110">34</text>
<circle cx="555" cy="88" r="4" stroke="black" stroke-width="3" fill="none"/><text style="text-anchor:start;" font-size="25px" x="560" y="100">C</text><text style="text-anchor:end;" font-size="35px" x="550" y="150">28</text>
<circle cx="555" cy="130" r="4" stroke="black" stroke-width="3" fill="none"/><text style="text-anchor:start;" font-size="25px" x="560" y="142">C</text><text style="text-anchor:end;" font-size="35px" x="145" y="330">21:00</text><text style="text-anchor:end;" font-size="35px" x="70" y="490">29</text>
<circle cx="75" cy="465" r="4" stroke="black" stroke-width="2" fill="none"/><text style="text-anchor:start;" font-size="25px" x="80" y="480">C</text><text style="text-anchor:end;" font-size="35px" x="155" y="490">30</text>
<circle cx="160" cy="465" r="4" stroke="black" stroke-width="2" fill="none"/><text style="text-anchor:start;" font-size="25px" x="165" y="480">C</text><line x1="112" x2="98" y1="460" y2="490" style="fill:none;stroke:black;stroke-linecap:round;stroke-width:2px;"/><text style="text-anchor:end;" font-size="35px" x="345" y="330">00:00</text><text style="text-anchor:end;" font-size="35px" x="270" y="490">33</text>
<circle cx="275" cy="465" r="4" stroke="black" stroke-width="2" fill="none"/><text style="text-anchor:start;" font-size="25px" x="280" y="480">C</text><text style="text-anchor:end;" font-size="35px" x="355" y="490">28</text>
<circle cx="360" cy="465" r="4" stroke="black" stroke-width="2" fill="none"/><text style="text-anchor:start;" font-size="25px" x="365" y="480">C</text><line x1="312" x2="298" y1="460" y2="490" style="fill:none;stroke:black;stroke-linecap:round;stroke-width:2px;"/><text style="text-anchor:end;" font-size="35px" x="545" y="330">03:00</text><text style="text-anchor:end;" font-size="35px" x="470" y="490">30</text>
<circle cx="475" cy="465" r="4" stroke="black" stroke-width="2" fill="none"/><text style="text-anchor:start;" font-size="25px" x="480" y="480">C</text><text style="text-anchor:end;" font-size="35px" x="555" y="490">27</text>
<circle cx="560" cy="465" r="4" stroke="black" stroke-width="2" fill="none"/><text style="text-anchor:start;" font-size="25px" x="565" y="480">C</text><line x1="512" x2="498" y1="460" y2="490" style="fill:none;stroke:black;stroke-linecap:round;stroke-width:2px;"/><line x1="200" x2="200" y1="300" y2="490" style="fill:none;stroke:black;stroke-width:2px;"/><line x1="400" x2="400" y1="300" y2="490" style="fill:none;stroke:black;stroke-width:2px;"/><text style="text-anchor:end;" font-size="35px" x="185" y="575">monday</text>
<text style="text-anchor:end;" font-size="35px" x="366" y="575">27</text>
<circle cx="371" cy="550" r="4" stroke="black" stroke-width="2" fill="none"/><text style="text-anchor:start;" font-size="25px" x="376" y="565">C</text><text style="text-anchor:end;" font-size="35px" x="550" y="575">34</text>
<circle cx="555" cy="550" r="4" stroke="black" stroke-width="2" fill="none"/><text style="text-anchor:start;" font-size="25px" x="560" y="565">C</text><line x1="406" x2="495" y1="565" y2="565" style="fill:none;stroke:black;stroke-linecap:round;stroke-width:10px;"/><text style="text-anchor:end;" font-size="35px" x="185" y="665">tuesday</text>
<text style="text-anchor:end;" font-size="35px" x="355" y="665">26</text>
<circle cx="360" cy="640" r="4" stroke="black" stroke-width="2" fill="none"/><text style="text-anchor:start;" font-size="25px" x="365" y="655">C</text><text style="text-anchor:end;" font-size="35px" x="516" y="665">31</text>
<circle cx="521" cy="640" r="4" stroke="black" stroke-width="2" fill="none"/><text style="text-anchor:start;" font-size="25px" x="526" y="655">C</text><line x1="395" x2="461" y1="655" y2="655" style="fill:none;stroke:black;stroke-linecap:round;stroke-width:10px;"/><text style="text-anchor:end;" font-size="35px" x="185" y="755">wednesday</text>
<text style="text-anchor:end;" font-size="35px" x="355" y="755">26</text>
<circle cx="360" cy="730" r="4" stroke="black" stroke-width="2" fill="none"/><text style="text-anchor:start;" font-size="25px" x="365" y="745">C</text><text style="text-anchor:end;" font-size="35px" x="538" y="755">33</text>
<circle cx="543" cy="730" r="4" stroke="black" stroke-width="2" fill="none"/><text style="text-anchor:start;" font-size="25px" x="548" y="745">C</text><line x1="395" x2="483" y1="745" y2="745" style="fill:none;stroke:black;stroke-linecap:round;stroke-width:10px;"/></g>
<g transform="matrix(4,0,0,4,-35,-40)"><path d="M50,61.998c-6.627,0-11.999-5.372-11.999-11.998  c0-6.627,5.372-11.999,11.999-11.999c0.755,0,1.491,0.078,2.207,0.212c-0.132,0.576-0.208,1.173-0.208,1.788  c0,4.418,3.582,7.999,8,7.999c0.615,0,1.212-0.076,1.788-0.208c0.133,0.717,0.211,1.452,0.211,2.208  C61.998,56.626,56.626,61.998,50,61.998z M48.212,42.208c-3.556,0.813-6.211,3.989-6.211,7.792c0,4.417,3.581,7.999,7.999,7.999  c3.802,0,6.978-2.655,7.791-6.211C52.937,50.884,49.115,47.062,48.212,42.208z" /></g>
<g transform="matrix(1.9,0,0,1.9,8,300)"><path d="m 59.999,65.64 c -0.266,0 -0.614,0 -1,0 0,-1.372 -0.319,-2.742 -0.943,-4 0.777,0 1.451,0 1.943,0 4.418,0 7.999,-3.58 7.999,-7.998 0,-4.418 -3.581,-7.999 -7.999,-7.999 -1.6,0 -3.083,0.481 -4.334,1.29 -1.231,-5.316 -5.973,-9.289 -11.664,-9.289 -6.627,0 -11.998,5.372 -11.998,11.998 0,5.953 4.339,10.879 10.023,11.822 -0.637,1.217 -0.969,2.549 -1.012,3.887 -7.406,-1.399 -13.012,-7.895 -13.012,-15.709 0,-8.835 7.162,-15.998 15.998,-15.998 6.004,0 11.229,3.312 13.965,8.204 0.664,-0.114 1.337,-0.205 2.033,-0.205 6.627,0 11.998,5.372 11.998,11.999 0,6.627 -5.37,11.998 -11.997,11.998 z m -9.998,-7.071 3.535,3.535 c 1.951,1.953 1.951,5.118 0,7.07 -1.953,1.953 -5.119,1.953 -7.07,0 -1.953,-1.952 -1.953,-5.117 0,-7.07 l 3.535,-3.535 z" /></g>
<g transform="matrix(1.9,0,0,1.9,208,300)"><path d="m 59.999,65.64 c -0.266,0 -0.614,0 -1,0 0,-1.372 -0.319,-2.742 -0.943,-4 0.777,0 1.451,0 1.943,0 4.418,0 7.999,-3.58 7.999,-7.998 0,-4.418 -3.581,-7.999 -7.999,-7.999 -1.6,0 -3.083,0.481 -4.334,1.29 -1.231,-5.316 -5.973,-9.289 -11.664,-9.289 -6.627,0 -11.998,5.372 -11.998,11.998 0,5.953 4.339,10.879 10.023,11.822 -0.637,1.217 -0.969,2.549 -1.012,3.887 -7.406,-1.399 -13.012,-7.895 -13.012,-15.709 0,-8.835 7.162,-15.998 15.998,-15.998 6.004,0 11.229,3.312 13.965,8.204 0.664,-0.114 1.337,-0.205 2.033,-0.205 6.627,0 11.998,5.372 11.998,11.999 0,6.627 -5.37,11.998 -11.997,11.998 z m -9.998,-7.071 3.535,3.535 c 1.951,1.953 1.951,5.118 0,7.07 -1.953,1.953 -5.119,1.953 -7.07,0 -1.953,-1.952 -1.953,-5.117 0,-7.07 l 3.535,-3.535 z" /></g>
<g transform="matrix(1.9,0,0,1.9,408,300)"><path d="M43.945,65.639c-8.835,0-15.998-7.162-15.998-15.998  c0-8.836,7.163-15.998,15.998-15.998c6.004,0,11.229,3.312,13.965,8.203c0.664-0.113,1.338-0.205,2.033-0.205  c6.627,0,11.999,5.373,11.999,12c0,6.625-5.372,11.998-11.999,11.998C57.168,65.639,47.143,65.639,43.945,65.639z M59.943,61.639  c4.418,0,8-3.582,8-7.998c0-4.418-3.582-8-8-8c-1.6,0-3.082,0.481-4.333,1.291c-1.231-5.316-5.974-9.29-11.665-9.29  c-6.626,0-11.998,5.372-11.998,11.999c0,6.626,5.372,11.998,11.998,11.998C47.562,61.639,56.924,61.639,59.943,61.639z" /></g>
<g transform="matrix(1.9,0,0,1.9,160,470)"><path d="m 59.999,65.64 c -0.266,0 -0.614,0 -1,0 0,-1.372 -0.319,-2.742 -0.943,-4 0.777,0 1.451,0 1.943,0 4.418,0 7.999,-3.58 7.999,-7.998 0,-4.418 -3.581,-7.999 -7.999,-7.999 -1.6,0 -3.083,0.481 -4.334,1.29 -1.231,-5.316 -5.973,-9.289 -11.664,-9.289 -6.627,0 -11.998,5.372 -11.998,11.998 0,5.953 4.339,10.879 10.023,11.822 -0.637,1.217 -0.969,2.549 -1.012,3.887 -7.406,-1.399 -13.012,-7.895 -13.012,-15.709 0,-8.835 7.162,-15.998 15.998,-15.998 6.004,0 11.229,3.312 13.965,8.204 0.664,-0.114 1.337,-0.205 2.033,-0.205 6.627,0 11.998,5.372 11.998,11.999 0,6.627 -5.37,11.998 -11.997,11.998 z m -9.998,-7.071 3.535,3.535 c 1.951,1.953 1.951,5.118 0,7.07 -1.953,1.953 -5.119,1.953 -7.07,0 -1.953,-1.952 -1.953,-5.117 0,-7.07 l 3.535,-3.535 z" /></g>
<g transform="matrix(1.9,0,0,1.9,160,560)"><path d="m 59.999,65.64 c -0.266,0 -0.614,0 -1,0 0,-1.372 -0.319,-2.742 -0.943,-4 0.777,0 1.451,0 1.943,0 4.418,0 7.999,-3.58 7.999,-7.998 0,-4.418 -3.581,-7.999 -7.999,-7.999 -1.6,0 -3.083,0.481 -4.334,1.29 -1.231,-5.316 -5.973,-9.289 -11.664,-9.289 -6.627,0 -11.998,5.372 -11.998,11.998 0,5.953 4.339,10.879 10.023,11.822 -0.637,1.217 -0.969,2.549 -1.012,3.887 -7.406,-1.399 -13.012,-7.895 -13.012,-15.709 0,-8.835 7.162,-15.998 15.998,-15.998 6.004,0 11.229,3.312 13.965,8.204 0.664,-0.114 1.337,-0.205 2.033,-0.205 6.627,0 11.998,5.372 11.998,11.999 0,6.627 -5.37,11.998 -11.997,11.998 z m -9.998,-7.071 3.535,3.535 c 1.951,1.953 1.951,5.118 0,7.07 -1.953,1.953 -5.119,1.953 -7.07,0 -1.953,-1.952 -1.953,-5.117 0,-7.07 l 3.535,-3.535 z" /></g>
<g transform="matrix(1.9,0,0,1.9,160,650)"><path d="M43.945,65.639c-8.835,0-15.998-7.162-15.998-15.998  c0-8.836,7.163-15.998,15.998-15.998c6.004,0,11.229,3.312,13.965,8.203c0.664-0.113,1.338-0.205,2.033-0.205  c6.627,0,11.999,5.373,11.999,12c0,6.625-5.372,11.998-11.999,11.998C57.168,65.639,47.143,65.639,43.945,65.639z M59.943,61.639  c4.418,0,8-3.582,8-7.998c0-4.418-3.582-8-8-8c-1.6,0-3.082,0.481-4.333,1.291c-1.231-5.316-5.974-9.29-11.665-9.29  c-6.626,0-11.998,5.372-11.998,11.999c0,6.626,5.372,11.998,11.998,11.998C47.562,61.639,56.924,61.639,59.943,61.639z" /></g>
</svg>